<svg xmlns:xlink="http://www.w3.org/1999/xlink" viewBox="-0.094 -0.308 1514.094 419.308" preserveAspectRatio="xMidYMid meet" data-bbox="-0.094 -0.308 1514.094 419.308" height="419" width="1514" xmlns="http://www.w3.org/2000/svg" data-type="color" role="presentation" aria-hidden="true" aria-label="">
    <g>
        <path fill="#825BF7" d="m214 75 1.684 1.344C223.794 82.877 230.742 89.62 237 98l1.973 2.465c20.797 26.834 28.81 61.648 25.129 95.081-4.648 35.999-23.1 67.69-51.727 89.892C186.038 304.877 156.433 312.342 124 312c2.491 24.319 6.931 47.964 15.275 70.987.956 2.656 1.846 5.332 2.725 8.013-5.344-1.498-9.643-3.971-14.312-6.875l-2.383-1.473C106.062 370.619 88.37 356.709 72 341l-2.71-2.586c-5.418-5.283-10.343-10.82-15.005-16.778a406 406 0 0 0-2.75-3.46C17.775 276.146-4.824 219.755.75 165.189c3.864-33.43 19.632-64.931 45.5-86.813C95.078 40.168 164.21 35.154 214 75M51.188 167.938C47.176 173.554 46.228 178.182 47 185c2.061 5.642 5.57 9.11 10.25 12.75 5.159 2.345 10.401 2.96 15.875 1.313 5.65-2.453 9.309-7.339 12.313-12.563 1.43-6.357.966-11.024-2.165-16.676C80.438 165.762 76.57 162.897 72 161c-8.73-1.15-14.847.246-20.812 6.938m65.437.562c-3.534 5.438-4.351 10.088-3.625 16.5 2.061 5.642 5.57 9.11 10.25 12.75 5.159 2.345 10.401 2.96 15.875 1.313 5.65-2.453 9.309-7.339 12.313-12.563 1.43-6.357.966-11.024-2.165-16.676-2.838-4.066-6.705-6.915-11.273-8.824-9.162-1.352-15.087.882-21.375 7.5m66 0c-3.244 4.99-4.61 9.527-3.625 15.5 2.07 6.317 4.86 11.008 10.828 14.16 5.276 2.04 10.01 2.485 15.422.715 5.929-2.623 9.361-6.986 12.02-12.77 1.776-5.12 1.297-9.384-.895-14.292-2.833-5.115-6.965-8.552-12.375-10.813-9.162-1.352-15.087.882-21.375 7.5" data-color="1"></path>
        <path fill="#587CF9" d="m188.828-.203 2.493-.021C225.775-.453 225.775-.453 240 3l2.494.586C267.717 9.69 291.532 20.647 311 38l2.57 2.242A399 399 0 0 1 321 47l2.168 1.969C344.577 69.247 358.665 96.722 366 125l.617 2.375c1.742 11.948.56 23.998-1.934 35.711C361.518 181.21 366.816 193.321 377 208a971 971 0 0 0 3.113 4.324c12.099 16.71 12.099 16.71 13.324 25.989-.546 3.356-1.374 4.954-3.437 7.687-3.211 2.204-6.723 3.857-10.195 5.606l-2.118 1.113-1.925.967c-3.282 2.448-4.537 5.407-5.506 9.313-1.162 8.288-1.374 16.235-.979 24.59.172 3.684.292 7.37.418 11.056l.082 2.31c.27 7.882.413 15.764.457 23.652q.016 2.235.049 4.47c.155 10.737.085 21.794-6.283 30.923-5.407 3.017-10.852 3.832-16.938 4.625l-2.533.367c-13.289 1.824-26.66 2.147-40.053 2.207q-3.7.02-7.4.053c-7 .061-14 .116-21 .15q-6.477.032-12.953.1a735 735 0 0 1-4.872.026c-13.05.029-25.802.882-37.564 7.16l-2.03 1.059c-12.627 6.821-20.323 16.953-24.88 30.527-1.196 4.195-2.068 8.423-2.777 12.726-8.266-7.298-10.117-19.845-11.254-30.344-.78-15.11 5.628-30.474 15.42-41.677 7.985-8.742 17.031-16.072 26.709-22.854 18.07-12.684 34.15-28.264 47.125-46.125l1.243-1.666C282.816 259.356 291.684 239.388 297 219l.95-3.508c10.323-42.606.653-89.368-21.95-126.492-6.043-9.515-13.097-17.984-21-26l-2.508-2.547c-30.812-29.587-74.839-42.235-116.707-41.656-8.315.218-16.543 1.126-24.785 2.203C125.252 3.72 168.195-.085 188.828-.203" data-color="2"></path>
        <path fill="#FFFFFF" d="M824 178c3.284 3.122 6.192 6.446 9 10l1.625-2.687c4.833-7.166 11.263-10.293 19.508-11.938 15.294-2.463 35.045-3.742 48.867 4.625 6.314 5.489 9.608 11.79 11 20q.124 2.292.12 4.587l.004 2.699-.01 2.92v3.106c0 3.382-.009 6.763-.016 10.145l-.005 7.041q-.006 9.26-.024 18.52-.014 9.45-.02 18.902-.016 18.54-.049 37.08h-39l-.06-8.717q-.102-14.262-.228-28.523a8412 8412 0 0 1-.134-17.292q-.056-8.344-.136-16.69-.029-3.182-.045-6.365a1771 1771 0 0 0-.078-8.92l-.007-2.654c-.075-5.54-.183-10.71-4.312-14.839-4.311-1.424-8.696-1.184-13.187-1.187l-2.463-.038c-5.705-.013-10.836.807-16.35 2.225-1.646 6.29-2.302 12.16-2.319 18.65l-.03 2.783c-.03 3.003-.048 6.005-.065 9.008q-.028 3.143-.059 6.284-.073 8.235-.128 16.468c-.04 5.61-.091 11.222-.141 16.832-.097 10.992-.18 21.983-.258 32.975h-39l-.06-8.81q-.102-14.41-.228-28.82-.076-8.738-.134-17.474-.056-8.433-.136-16.865-.029-3.216-.045-6.433c-.017-3.004-.046-6.008-.078-9.013l-.007-2.683c-.063-4.646-.34-8.598-2.312-12.902-4.804-2.568-9.992-2.3-15.312-2.25l-2.436-.023c-5.657.018-10.782.876-16.252 2.273-1.646 6.29-2.302 12.16-2.319 18.65l-.03 2.783c-.03 3.003-.048 6.005-.065 9.008q-.028 3.143-.059 6.284-.073 8.235-.128 16.468c-.04 5.61-.091 11.222-.141 16.832-.097 10.992-.18 21.983-.258 32.975h-39V175h39l1 10 2-2.75c5.893-7.059 15.547-9.268 24.367-10.09 12.985-.79 29.218-1.426 40.633 5.84" data-color="3"></path>
        <path fill="#FFFFFF" d="M466 132h42l1 77c11.244-13.65 11.244-13.65 22.23-27.484 2.994-3.822 6.07-7.573 9.145-11.328a533 533 0 0 0 14.697-18.814 136 136 0 0 1 3.11-3.968c1.96-2.491 1.96-2.491 3.78-5.79 2.997-4.78 5.946-8.811 11.62-10.288 7.524-.957 15.053-.512 22.606-.14q3.465.097 6.931.177c5.631.143 11.255.36 16.881.635-1.65 3.448-3.606 6.12-6.062 9.063l-2.458 2.96L609 147a2733 2733 0 0 0-4.25 5.188l-2.234 2.73c-3.58 4.386-7.15 8.783-10.718 13.178q-4.637 5.712-9.298 11.404c-8.56 10.451-17.089 20.929-25.5 31.5 8.358 11.217 16.951 22.248 25.609 33.234q3.449 4.38 6.891 8.766l2.75 3.5 5.5 7 1.375 1.75 2.748 3.498q3.453 4.396 6.912 8.787 3.426 4.35 6.839 8.71 1.413 1.802 2.83 3.6 2.122 2.698 4.234 5.405l1.316 1.664C627 300.772 627 300.772 627 303c-7.023.435-14.042.73-21.075.934q-3.58.127-7.155.348c-19.212 1.163-19.212 1.163-25.079-2.868-3.949-3.884-6.721-8.322-9.373-13.153-2.247-3.854-5.05-7.272-7.818-10.761q-1.63-2.122-3.25-4.25l-1.625-2.125-17.875-23.375-1.628-2.128-3.223-4.216a8630 8630 0 0 0-8.536-11.148l-1.8-2.35-3.426-4.465-1.555-2.029-1.368-1.783c-1.122-1.507-2.172-3.067-3.214-4.631l-1 88h-42z" data-color="3"></path>
        <path fill="#7A61F8" d="M1342 132h51c4.5 10.124 4.5 10.124 6.248 15.024l1.201 3.35 1.27 3.571 1.365 3.814q1.455 4.063 2.904 8.128c2.316 6.495 4.643 12.987 6.97 19.48l1.588 4.435a8114 8114 0 0 0 15.954 44.073 8826 8826 0 0 1 18.25 50.5l.986 2.753q1.345 3.76 2.686 7.52l.801 2.239C1455 301.885 1455 301.885 1455 303h-43l-6.937-19.687-2.188-6.19-1.715-4.885-.9-2.54-.861-2.458-.747-2.12c-.716-2.329-1.174-4.731-1.652-7.12l-61 1c-4.564 13.732-4.564 13.732-9.125 27.464l-1.715 5.153-.9 2.717-.861 2.583-.747 2.248C1322 301 1322 301 1321 303h-42c3.548-10.645 7.091-21.207 11.02-31.703l2.096-5.637q1.095-2.943 2.194-5.884 2.302-6.168 4.596-12.34l4.672-12.551q6.194-16.64 12.336-33.3a20918 20918 0 0 1 19.148-51.696q1.467-3.953 2.938-7.905l.881-2.375c2.004-5.38 2.004-5.38 3.119-7.609m24 35c-10.81 31.397-10.81 31.397-21 63h43l-5.437-16.312L1367 167z" data-color="4"></path>
        <path fill="#FFFFFF" d="M1006 175h43c7.436 21.953 14.458 44.017 21.373 66.14l1.104 3.525a4811 4811 0 0 1 2.073 6.642l.935 2.985.817 2.62c.652 2.113.652 2.113 1.698 4.088l.904-3.13a231713 231713 0 0 1 12.767-44.182l5.779-20 2.233-7.728.67-2.32c.838-2.897 1.693-5.778 2.647-8.64h41c-3.375 11.25-3.375 11.25-4.95 15.359l-1.081 2.832c-.38.986-.76 1.973-1.153 2.989l-1.233 3.225q-2.007 5.236-4.02 10.47l-2.838 7.406Q1123.369 228.643 1119 240l-1.326 3.45q-5.554 14.445-11.115 28.889a12480 12480 0 0 0-13.34 34.794l-.729 1.909q-3.847 10.083-7.69 20.169a9460 9460 0 0 0-3.656 9.598 1349 1349 0 0 1-6.322 16.299C1074 357 1074 357 1073 358a234 234 0 0 1-8.629.098l-2.619-.005c-2.771-.005-5.543-.018-8.314-.03q-2.813-.009-5.624-.014-6.907-.017-13.814-.049c.615-5.552 2.555-10.215 4.71-15.309l1.119-2.681q1.765-4.227 3.546-8.447l2.367-5.667q2.18-5.219 4.373-10.433l.96-2.318a69 69 0 0 1 1.874-4.006c2.363-4.74 2.298-8.15 1.051-13.139-1.14-3.51-1.14-3.51-2.684-7.027l-.857-2.054a905 905 0 0 0-1.888-4.478c-1.803-4.251-3.57-8.517-5.34-12.78l-1.205-2.895c-5.728-13.808-11.242-27.703-16.782-41.587l-3.44-8.615c-5.696-14.263-5.696-14.263-8.368-20.976a1390 1390 0 0 0-3.125-7.743l-.844-2.082a988 988 0 0 0-1.624-3.982C1006 177.225 1006 177.225 1006 175" data-color="3"></path>
        <path fill="#7366F8" d="M1472 132h42v171h-42z" data-color="5"></path>
        <path fill="#FFFFFF" d="M1162 175h39v128h-39z" data-color="3"></path>
        <path fill="#FFFFFF" d="M948 175h39v128h-39z" data-color="3"></path>
        <path fill="#FFFFFF" d="M644 175h39v128h-39z" data-color="3"></path>
        <path fill="#FFFFFF" d="M1162 129h39v32h-39z" data-color="3"></path>
        <path fill="#FFFFFF" d="M948 129h39v32h-39z" data-color="3"></path>
        <path fill="#FFFFFF" d="M644 129h39v32h-39z" data-color="3"></path>
    </g>
</svg>